<?xml version="1.0" encoding="utf-8"?>
<!-- Generator: Adobe Illustrator 26.0.1, SVG Export Plug-In . SVG Version: 6.00 Build 0)  -->
<svg version="1.1" id="Layer_1" xmlns="http://www.w3.org/2000/svg" xmlns:xlink="http://www.w3.org/1999/xlink" x="0px" y="0px"
	 viewBox="0 0 131.6 29" style="enable-background:new 0 0 131.6 29;" xml:space="preserve">
<style type="text/css">
	.st0{fill:#FDC223;}
	.st1{fill:#231F20;}
</style>
<g>
	<g>
		<path class="st0" d="M12,10L0,0l1.5,16.9c0.2,1.8,0.4,2.8,0.8,3.6c0.4,0.9,1.1,1.4,1.9,2c1.1,0.7,7.7,5.2,8.2,5.5
			c0.5-0.3,7-4.7,8.2-5.5c1.8-1.3,2.4-2.2,2.7-5.6c0.1-1.4,1.4-15.3,1.5-16.3H11.9L12,10z M10,25.4c-1.8-1.2-4.6-3.1-5.3-3.6
			c-1.5-1-2.1-1.7-2.3-5c0-0.3-0.1-0.8-0.1-1.6C2.2,13.8,2,11.8,1.8,9.6L1.3,3.8l10.1,22.5L10,25.4z M12,25.4L1.8,2.7L12,11.2V25.4z
			 M23.6,3.8c0,0-0.3,3.1-0.4,4.7C23,10,22.9,11.6,22.7,13l-0.3,3.9c-0.3,3.3-0.9,4-2.3,5c-0.7,0.5-6.6,4.4-6.6,4.4L23.6,3.8z
			 M12.9,1.6H23L12.9,10V1.6z M12.9,11.2L23,2.7L12.9,25.4V11.2z"/>
	</g>
	<g>
		<path class="st1" d="M31.2,9V1.1h1.2c1.8,0,3.1,1.4,3.1,3.9c0,2.5-1.3,4-3.1,4H31.2z M28.7,9.5h3.9C35,9.5,37.3,8,37.3,5
			c0-2.8-2-4.4-5-4.4l-3.7,0v0.3l0.9,0.2V9l-0.9,0.2V9.5z"/>
		<path class="st1" d="M42.2,5.7h-2.4c0.1-1,0.5-1.8,1.2-1.8C41.9,3.9,42.1,4.9,42.2,5.7 M39.8,6.1h3.9c0-1.6-0.9-2.7-2.6-2.7
			c-1.7,0-2.9,1.5-2.9,3.1c0,1.8,1.2,3.1,3,3.1c1.5,0,2.3-0.6,2.7-0.9l-0.3-0.4c-0.3,0.2-1,0.7-2.2,0.6C40.2,8.8,39.6,7.6,39.8,6.1"
			/>
		<polygon class="st1" points="48.3,0.9 48.3,0.6 51.2,0.6 51.2,0.9 50.3,1.1 47,9.5 46.3,9.5 43.6,1.1 42.7,0.9 42.7,0.6 46.4,0.6 
			46.4,0.9 45.3,1.1 47.2,7.5 49.5,1.1 		"/>
		<path class="st1" d="M54.1,3.5c0.6,0,0.8,0.2,1,0.4L54.7,5c-0.2-0.1-0.4-0.2-0.8-0.2c-0.5,0-1,0.4-1.3,0.8V9L54,9.2v0.3h-3.7V9.2
			L51.2,9V4.1l-0.9-0.2V3.6l2.2-0.2L52.6,5C52.8,4.5,53.5,3.5,54.1,3.5"/>
		<path class="st1" d="M56.9,12.7c-0.6,0-1-0.2-1.2-0.4l0.5-1.1c0.3,0.2,0.6,0.3,0.9,0.3c0.7,0,1-0.4,1.2-0.9l0.3-0.8L56.2,4
			l-0.6-0.1V3.6h3.1v0.2l-0.9,0.2l1.6,3.8l1.4-3.8L60,3.9V3.6h2.3v0.2l-0.8,0.2l-2.8,6.9C58.4,11.5,57.8,12.7,56.9,12.7"/>
	</g>
	<g>
		<path class="st1" d="M71.5,1.2l-1.3-0.3V0.7h3v0.3l-0.9,0.3l-0.1,5.5c-0.1,2.1-1.6,2.9-3.6,2.9c-2.3,0-3.4-0.9-3.4-2.9V1.1
			l-0.9-0.2V0.7h3.8v0.3l-1.3,0.2v5.5C66.9,8.3,67.4,9,69,9c1.6,0,2.6-0.9,2.6-2.6L71.5,1.2z"/>
		<path class="st1" d="M76.7,9.2v0.2h-3.2V9.2L74.4,9V4.1l-0.9-0.2V3.6l2.3-0.1l0.1,1c0.3-0.2,1.1-1,2.2-1c1.1,0,1.7,0.6,1.7,1.7
			v3.7l0.8,0.2v0.3h-3.1V9.2L78.2,9V5.4c0-0.6-0.2-1.1-0.9-1.1c-0.6,0-1.3,0.4-1.5,0.6V9L76.7,9.2z"/>
		<path class="st1" d="M84.5,9.2v0.2h-3.2V9.2L82.1,9V4.1l-0.9-0.2V3.7l2.4-0.2V9L84.5,9.2z M83.7,1.5c0,0.4-0.4,0.8-0.9,0.8
			c-0.5,0-0.9-0.4-0.9-0.8c0-0.4,0.4-0.8,0.9-0.8C83.3,0.7,83.7,1,83.7,1.5"/>
		<polygon class="st1" points="85.2,4 84.8,3.9 84.8,3.6 87.6,3.6 87.6,3.9 86.7,4.1 88,7.6 89.2,4.1 88.5,3.9 88.5,3.6 90.4,3.6 
			90.4,3.9 89.9,4.1 87.7,9.5 87.2,9.5 		"/>
		<path class="st1" d="M94.4,5.7h-2.3c0.1-1,0.5-1.7,1.2-1.7C94.1,3.9,94.3,4.9,94.4,5.7 M92,6.1h3.9c0-1.6-0.9-2.6-2.6-2.6
			c-1.7,0-2.9,1.4-2.9,3c0,1.8,1.2,3,2.9,3c1.5,0,2.2-0.6,2.7-0.9l-0.2-0.4c-0.3,0.2-1,0.7-2.2,0.6C92.5,8.8,91.9,7.6,92,6.1"/>
		<path class="st1" d="M100.7,3.5c0.6,0,0.8,0.2,1,0.4l-0.5,1c-0.2-0.1-0.4-0.2-0.8-0.2c-0.5,0-0.9,0.4-1.2,0.7v3.4l1.3,0.2v0.3
			h-3.7V9.2L97.7,9V4.1l-0.9-0.2V3.7L99,3.5L99.1,5C99.4,4.5,100,3.5,100.7,3.5"/>
		<path class="st1" d="M106.2,3.8l-0.1,1.4h-0.5l-0.1-1c-0.2-0.1-0.5-0.3-1-0.3c-0.5,0-0.8,0.2-0.8,0.8c0,0.6,0.7,0.8,1.3,1.1
			c0.6,0.3,1.7,0.7,1.7,1.7c0,1.2-1,2-2.1,2c-1.1,0-1.7-0.2-1.9-0.3l-0.1-1.6l0.6-0.1l0.3,1.1c0.2,0.1,0.6,0.5,1.1,0.4
			c0.7,0,1.1-0.4,1.1-1c0-0.7-0.9-1-1.6-1.2c-0.6-0.3-1.5-0.5-1.5-1.7c0-1,0.8-1.7,1.9-1.7C105.4,3.5,106,3.7,106.2,3.8"/>
		<path class="st1" d="M110.7,9.2v0.2h-3.2V9.2l0.9-0.2V4.1l-0.9-0.2V3.7l2.4-0.2V9L110.7,9.2z M109.9,1.5c0,0.4-0.4,0.8-0.9,0.8
			c-0.5,0-0.9-0.4-0.9-0.8c0-0.4,0.4-0.8,0.9-0.8C109.5,0.7,109.9,1,109.9,1.5"/>
		<path class="st1" d="M113.7,9.5c-1.2,0-1.4-0.5-1.4-1.6V4.1L111,3.9V3.6h1.3l0.8-2.4h0.6l0.1,2.4h1.5v0.3l-1.5,0.2v3.7
			c0,0.8,0.1,1,0.7,1.1c0.3,0.1,0.7,0.1,1,0l0.1,0.3C115.2,9.4,114.6,9.5,113.7,9.5"/>
		<path class="st1" d="M117,12.6c-0.6,0-1-0.2-1.2-0.4l0.5-1.1c0.3,0.2,0.6,0.3,0.9,0.3c0.7,0,1-0.4,1.2-0.9l0.3-0.8L116.3,4
			l-0.4-0.1V3.6h2.9v0.2l-0.9,0.2l1.6,3.7l1.4-3.7l-0.8-0.2V3.6h1.8v0.2l-0.4,0.2l-2.8,6.8C118.5,11.5,117.9,12.6,117,12.6"/>
	</g>
	<path class="st1" d="M69.8,21.1v0.9c-0.2,0.1-0.8,0.4-1.7,0.4c-1.1,0-1.9-0.8-1.9-1.9c0-1.2,0.9-1.9,1.9-1.9c0.8,0,1.4,0.2,1.5,0.3
		v0.9h-0.3l-0.1-0.6c-0.1-0.1-0.5-0.4-1.1-0.4c-0.7,0-1.2,0.8-1.2,1.7c0,0.9,0.4,1.7,1.2,1.7c0.6,0,0.9-0.3,1-0.4v-0.8L68.6,21v-0.1
		l1.6,0V21L69.8,21.1z"/>
	<path class="st1" d="M72.1,19.9c0.2,0,0.3,0.1,0.4,0.2l-0.2,0.4c-0.1-0.1-0.2-0.1-0.3-0.1c-0.2,0-0.4,0.2-0.5,0.3v1.5l0.5,0.1v0.1
		h-1.6v-0.1l0.4-0.1v-2.1l-0.4-0.1V20l0.9-0.1l0,0.6C71.5,20.3,71.8,19.9,72.1,19.9z"/>
	<path class="st1" d="M74.2,22c-0.1,0.1-0.2,0.2-0.4,0.2c-0.3,0-0.4-0.2-0.4-0.4c0-0.2,0.2-0.4,0.5-0.5l0.4,0V22z M74.2,20.7v0.4
		l-0.6,0c-0.5,0-0.9,0.3-0.9,0.7c0,0.4,0.3,0.6,0.7,0.6c0.3,0,0.6-0.2,0.7-0.3l0,0.3l1-0.1v-0.1l-0.4-0.1v-1.7
		c0-0.4-0.2-0.7-0.8-0.7c-0.6,0-0.9,0.2-1.1,0.2l0,0.6h0.3l0.1-0.5c0.1,0,0.2-0.1,0.5,0C74.1,20.2,74.2,20.4,74.2,20.7z"/>
	<path class="st1" d="M77.4,22c-0.2,0.1-0.3,0.2-0.6,0.2c-0.3,0-0.6-0.2-0.6-0.9c0-0.7,0.3-1,0.6-1c0.3,0,0.4,0.1,0.6,0.2V22z
		 M77.4,22.5l1,0v-0.1L78,22.2v-3.8l-1.1,0.1v0.1l0.5,0.1v1.4c-0.2-0.1-0.5-0.2-0.8-0.2c-0.6,0-1.1,0.5-1.1,1.3
		c0,0.8,0.4,1.2,1.1,1.2c0.3,0,0.6-0.1,0.8-0.3L77.4,22.5z"/>
	<path class="st1" d="M81.2,22.2l0.4,0.1v0.1l-1,0.1l0-0.4c-0.2,0.2-0.5,0.4-1,0.4c-0.5,0-0.7-0.4-0.7-0.7v-1.6l-0.4-0.1V20l1-0.1
		v1.8c0,0.3,0.1,0.5,0.4,0.5c0.2,0,0.4-0.1,0.6-0.3v-1.7l-0.4-0.1V20l1-0.1V22.2z"/>
	<path class="st1" d="M83.3,22c-0.1,0.1-0.2,0.2-0.4,0.2c-0.3,0-0.4-0.2-0.4-0.4c0-0.2,0.2-0.4,0.5-0.5l0.4,0V22z M83.3,20.7v0.4
		l-0.6,0c-0.5,0-0.9,0.3-0.9,0.7c0,0.4,0.3,0.6,0.7,0.6c0.3,0,0.6-0.2,0.7-0.3l0,0.3l0.9-0.1v-0.1l-0.4-0.1v-1.7
		c0-0.4-0.2-0.7-0.8-0.7c-0.6,0-0.9,0.2-1.1,0.2l0,0.6h0.3l0.1-0.5c0.1,0,0.2-0.1,0.5,0C83.3,20.2,83.3,20.4,83.3,20.7z"/>
	<path class="st1" d="M85.5,22.5c-0.5,0-0.6-0.2-0.6-0.7v-1.6l-0.5-0.1V20h0.5l0.4-1h0.3l0,1h0.6v0.1l-0.6,0.1v1.6
		c0,0.3,0,0.4,0.3,0.5c0.1,0,0.3,0,0.4,0l0,0.1C86.2,22.4,85.9,22.5,85.5,22.5z"/>
	<path class="st1" d="M88.2,20.8h-1c0.1-0.4,0.2-0.7,0.5-0.7C88.1,20.1,88.2,20.5,88.2,20.8z M87.2,21h1.6c0-0.7-0.4-1.1-1.1-1.1
		c-0.7,0-1.2,0.6-1.2,1.3c0,0.8,0.5,1.3,1.2,1.3c0.6,0,0.9-0.2,1.1-0.4l-0.1-0.2c-0.1,0.1-0.4,0.3-0.9,0.3
		C87.4,22.1,87.1,21.6,87.2,21z"/>
	<path class="st1" d="M92.9,18.8v0.9h-0.3l-0.1-0.6c-0.1-0.1-0.3-0.3-0.7-0.3c-0.3,0-0.6,0.2-0.6,0.6c0,0.4,0.4,0.6,0.8,0.9
		c0.4,0.2,1,0.5,1,1.1c0,0.6-0.6,1.1-1.2,1.1c-0.7,0-1-0.1-1.2-0.2l0-1l0.3,0l0.2,0.7c0.1,0.1,0.3,0.3,0.7,0.3
		c0.4,0,0.7-0.3,0.7-0.7c0-0.4-0.5-0.7-0.9-0.9c-0.4-0.2-0.9-0.4-0.9-1.1c0-0.6,0.5-1,1.1-1C92.4,18.6,92.8,18.7,92.9,18.8z"/>
	<path class="st1" d="M94.9,20.1c-0.4,0-0.6,0.5-0.6,1.1c0,0.5,0.2,1,0.7,1c0.4,0,0.7-0.2,0.8-0.2l0.1,0.2c-0.1,0.1-0.5,0.4-1.1,0.4
		c-0.8,0-1.3-0.5-1.3-1.3c0-0.7,0.5-1.3,1.3-1.3c0.5,0,0.9,0.1,1,0.1l-0.1,0.7h-0.3l-0.1-0.4C95.4,20.3,95.2,20.1,94.9,20.1z"/>
	<path class="st1" d="M97.6,22.3v0.1h-1.4v-0.1l0.4-0.1v-3.5l-0.4-0.1v-0.1l1-0.1v1.8c0.1-0.1,0.5-0.4,0.9-0.4
		c0.4,0,0.7,0.3,0.7,0.7v1.6l0.4,0.1v0.1h-1.3v-0.1l0.3-0.1v-1.5c0-0.2-0.1-0.5-0.4-0.5c-0.3,0-0.5,0.2-0.6,0.2v1.7L97.6,22.3z"/>
	<path class="st1" d="M100.8,20.1c0.4,0,0.7,0.5,0.7,1.1c0,0.6-0.2,1.1-0.7,1.1c-0.4,0-0.7-0.5-0.7-1.1
		C100.2,20.6,100.4,20.1,100.8,20.1z M100.8,19.9c-0.7,0-1.4,0.5-1.4,1.3c0,0.8,0.6,1.3,1.4,1.3c0.7,0,1.4-0.5,1.4-1.3
		C102.2,20.4,101.5,19.9,100.8,19.9z"/>
	<path class="st1" d="M103.9,20.1c0.4,0,0.7,0.5,0.7,1.1c0,0.6-0.2,1.1-0.7,1.1c-0.4,0-0.7-0.5-0.7-1.1
		C103.3,20.6,103.5,20.1,103.9,20.1z M103.9,19.9c-0.7,0-1.4,0.5-1.4,1.3c0,0.8,0.6,1.3,1.4,1.3c0.7,0,1.4-0.5,1.4-1.3
		C105.3,20.4,104.6,19.9,103.9,19.9z"/>
	<path class="st1" d="M107,22.3v0.1h-1.4v-0.1l0.4-0.1v-3.5l-0.4-0.1v-0.1l1-0.1v3.8L107,22.3z"/>
	<path class="st1" d="M35.1,19.1l-0.9-0.2v-0.3h2.6v0.3l-0.6,0.2l-3.5,3.2l4.1,4.8l0.9,0.2v0.3l-2.5,0.1l-3.8-4.5v3.9l0.9,0.2v0.3
		h-3.4v-0.3l0.9-0.2v-7.9l-0.9-0.2v-0.3h3.4v0.3l-0.9,0.2v3.6L35.1,19.1z"/>
	<path class="st1" d="M41.5,23.7h-2.4c0.1-1,0.5-1.8,1.2-1.8C41.2,22,41.4,22.9,41.5,23.7z M39,24.2H43c0-1.6-0.9-2.7-2.6-2.7
		c-1.7,0-2.9,1.5-2.9,3.1c0,1.9,1.2,3.1,3,3.1c1.5,0,2.3-0.6,2.7-0.9l-0.3-0.4c-0.3,0.2-1,0.7-2.2,0.6C39.5,26.9,38.9,25.7,39,24.2z
		"/>
	<path class="st1" d="M46.9,27.3v0.3h-3.3v-0.3l0.9-0.2v-8.3l-0.9-0.2v-0.2l2.4-0.2v9L46.9,27.3z"/>
	<path class="st1" d="M50.6,27.3v0.3h-3.3v-0.3l0.9-0.2v-8.3l-0.9-0.2v-0.2l2.4-0.2v9L50.6,27.3z"/>
	<path class="st1" d="M55.3,23.7h-2.4c0.1-1,0.5-1.8,1.2-1.8C54.9,22,55.2,22.9,55.3,23.7z M52.8,24.2h3.9c0-1.6-0.9-2.7-2.6-2.7
		c-1.7,0-2.9,1.5-2.9,3.1c0,1.9,1.2,3.1,3,3.1c1.5,0,2.3-0.6,2.7-0.9l-0.3-0.4c-0.3,0.2-1,0.7-2.2,0.6
		C53.3,26.9,52.7,25.7,52.8,24.2z"/>
	<path class="st1" d="M61.4,21.5c0.6,0,0.8,0.2,1,0.4L62,23c-0.2-0.1-0.4-0.2-0.8-0.2c-0.5,0-1,0.4-1.3,0.8V27l1.3,0.2v0.3h-3.7
		v-0.3l0.9-0.2v-4.9l-0.9-0.2v-0.2l2.2-0.2l0.1,1.5C60.1,22.6,60.7,21.5,61.4,21.5z"/>
	<path class="st1" d="M67.7,25c0.5,0,0.7,0.5,0.7,1.2c0,0.7-0.2,1.2-0.7,1.2c-0.5,0-0.7-0.5-0.7-1.2C67,25.6,67.2,25,67.7,25z
		 M67.7,24.8c-0.8,0-1.5,0.5-1.5,1.4c0,0.8,0.7,1.4,1.5,1.4c0.8,0,1.5-0.6,1.5-1.4C69.2,25.4,68.5,24.8,67.7,24.8z"/>
	<path class="st1" d="M70.6,24.9h0.5V25l-0.5,0.1v2.2l0.6,0.1v0.1h-1.7v-0.1l0.4-0.1v-2.2L69.5,25v-0.1h0.4v-0.2
		c0-0.7,0.5-1.5,1.2-1.5c0.1,0,0.3,0,0.5,0.1l-0.1,0.8h-0.2l-0.1-0.5c-0.1-0.1-0.2-0.1-0.4-0.1c-0.3,0-0.3,0.3-0.3,0.6V24.9z"/>
	<path class="st1" d="M76.8,23.5h1.1v0.1l-0.4,0.1l0.1,3.6l0.4,0.1v0.1h-1.7v-0.1l0.6-0.1l0-2.9l-1.3,3.1h-0.3l-1.3-3.2l0,2.9
		l0.5,0.1v0.1H73v-0.1l0.4-0.1l0.2-3.6l-0.5-0.1v-0.1l1.1,0l1.3,3.1L76.8,23.5L76.8,23.5z"/>
	<path class="st1" d="M79.8,27.1c-0.1,0.1-0.3,0.2-0.5,0.2c-0.4,0-0.5-0.2-0.5-0.5c0-0.3,0.2-0.4,0.5-0.5l0.4,0V27.1z M79.8,25.7
		v0.5l-0.6,0c-0.6,0-1,0.3-1,0.8c0,0.4,0.3,0.7,0.8,0.7c0.4,0,0.6-0.2,0.8-0.3l0,0.3l1-0.1v-0.1l-0.4-0.1v-1.8
		c0-0.4-0.3-0.7-0.8-0.7c-0.6,0-1,0.2-1.2,0.3l0,0.6h0.3l0.1-0.5c0.1,0,0.2-0.1,0.5,0C79.8,25.2,79.8,25.4,79.8,25.7z"/>
	<path class="st1" d="M82.7,27.5v0.1h-1.5v-0.1l0.4-0.1v-2.2L81.2,25v-0.1l1-0.1l0,0.4c0.1-0.1,0.5-0.4,1-0.4c0.5,0,0.8,0.3,0.8,0.8
		v1.7l0.4,0.1v0.1H83v-0.1l0.4-0.1v-1.7c0-0.3-0.1-0.5-0.4-0.5c-0.3,0-0.6,0.2-0.7,0.3v1.9L82.7,27.5z"/>
	<path class="st1" d="M86.4,27.1c-0.1,0.1-0.3,0.2-0.5,0.2c-0.4,0-0.4-0.2-0.4-0.5c0-0.3,0.2-0.4,0.5-0.5l0.4,0V27.1z M86.4,25.7
		v0.5l-0.6,0c-0.6,0-1,0.3-1,0.8c0,0.4,0.3,0.7,0.8,0.7c0.4,0,0.6-0.2,0.8-0.3l0,0.3l1-0.1v-0.1l-0.4-0.1v-1.8
		c0-0.4-0.3-0.7-0.8-0.7c-0.6,0-1,0.2-1.2,0.3l0,0.6h0.3l0.1-0.5c0.1,0,0.2-0.1,0.5,0C86.3,25.2,86.4,25.4,86.4,25.7z"/>
	<path class="st1" d="M89.1,25c0.3,0,0.5,0.3,0.5,0.6c0,0.4-0.2,0.6-0.5,0.6c-0.3,0-0.5-0.3-0.5-0.6C88.7,25.3,88.8,25,89.1,25z
		 M88.5,27.7h1c0.3,0,0.5,0.1,0.5,0.4c0,0.5-0.5,0.7-0.9,0.7c-0.4,0-0.9-0.2-0.9-0.6C88.2,27.9,88.4,27.8,88.5,27.7z M89.2,26.5
		c0.6,0,1-0.3,1-0.8c0-0.3-0.2-0.5-0.3-0.6l0.6-0.1v-0.1l-1.2,0c-0.1,0-0.1,0-0.1,0c-0.7,0-1.1,0.3-1.1,0.8c0,0.4,0.3,0.6,0.5,0.7
		c-0.3,0-0.6,0.3-0.6,0.6c0,0.5,0.2,0.6,0.4,0.6c-0.2,0.1-0.6,0.2-0.6,0.7c0,0.4,0.4,0.7,1.4,0.7c0.8,0,1.4-0.4,1.5-1
		c0.1-0.6-0.3-1-0.9-1h-1c-0.3,0-0.4-0.1-0.4-0.3c0-0.2,0.2-0.3,0.4-0.3H89.2z"/>
	<path class="st1" d="M92.7,25.8h-1.1c0.1-0.5,0.2-0.8,0.6-0.8C92.6,25,92.7,25.5,92.7,25.8z M91.6,26.1h1.8c0-0.7-0.4-1.2-1.2-1.2
		c-0.8,0-1.3,0.7-1.3,1.4c0,0.8,0.6,1.4,1.3,1.4c0.7,0,1-0.3,1.2-0.4L93.3,27c-0.2,0.1-0.5,0.3-1,0.3C91.8,27.3,91.5,26.7,91.6,26.1
		z"/>
	<path class="st1" d="M97.3,24.8c0.4,0,0.7,0.3,0.7,0.7v1.8l0.3,0.1v0.1h-1.3v-0.1l0.3-0.1v-1.7c0-0.2,0-0.5-0.3-0.5
		c-0.2,0-0.5,0.2-0.6,0.3v1.9l0.3,0.1v0.1h-1.3v-0.1l0.3-0.1v-1.7c0-0.3,0-0.5-0.3-0.5c-0.2,0-0.5,0.2-0.6,0.3v1.9l0.4,0.1v0.1h-1.4
		v-0.1l0.4-0.1v-2.3L93.8,25v-0.1l1.1-0.1l0,0.4c0.1-0.1,0.5-0.4,0.9-0.4c0.4,0,0.6,0.2,0.6,0.4C96.6,25.1,96.9,24.8,97.3,24.8z"/>
	<path class="st1" d="M100.5,25.8h-1.1c0.1-0.5,0.2-0.8,0.6-0.8C100.3,25,100.4,25.5,100.5,25.8z M99.4,26.1h1.8
		c0-0.7-0.4-1.2-1.2-1.2c-0.8,0-1.3,0.7-1.3,1.4c0,0.8,0.6,1.4,1.3,1.4c0.7,0,1-0.3,1.2-0.4l-0.1-0.2c-0.2,0.1-0.5,0.3-1,0.3
		C99.6,27.3,99.3,26.7,99.4,26.1z"/>
	<path class="st1" d="M103,27.5v0.1h-1.5v-0.1l0.4-0.1v-2.2l-0.4-0.1v-0.1l1.1-0.1l0,0.4c0.1-0.1,0.5-0.4,1-0.4
		c0.5,0,0.8,0.3,0.8,0.8v1.7l0.4,0.1v0.1h-1.4v-0.1l0.4-0.1v-1.7c0-0.3-0.1-0.5-0.4-0.5c-0.3,0-0.6,0.2-0.7,0.3v1.9L103,27.5z"/>
	<path class="st1" d="M106.1,27.6c-0.6,0-0.6-0.2-0.6-0.7v-1.8l-0.6-0.1v-0.1h0.6l0.4-1.1h0.3l0,1.1h0.7V25l-0.7,0.1v1.7
		c0,0.4,0,0.5,0.3,0.5c0.2,0,0.3,0,0.5,0l0,0.1C106.8,27.6,106.6,27.6,106.1,27.6z"/>
	<rect x="28.8" y="14.4" class="st1" width="92.8" height="0.4"/>
</g>
</svg>
